<svg xmlns="http://www.w3.org/2000/svg" xmlns:xlink="http://www.w3.org/1999/xlink" width="500" zoomAndPan="magnify" viewBox="0 0 375 374.999991" height="500" preserveAspectRatio="xMidYMid meet" version="1.0"><defs><g/><clipPath id="be44f39f91"><path d="M 82.65625 128.453125 L 292.65625 128.453125 L 292.65625 189.203125 L 82.65625 189.203125 Z M 82.65625 128.453125 " clip-rule="nonzero"/></clipPath><clipPath id="3cc952dd0f"><path d="M 134 171 L 153 171 L 153 189.203125 L 134 189.203125 Z M 134 171 " clip-rule="nonzero"/></clipPath></defs><g clip-path="url(#be44f39f91)"><path fill="#383535" d="M 148.707031 133.6875 L 183.585938 168.566406 L 283.445312 168.566406 L 292.15625 178.90625 L 283.445312 189.25 L 273.566406 189.25 L 270.800781 183.722656 L 264.355469 183.722656 L 261.589844 189.25 L 255.394531 189.25 L 252.628906 183.722656 L 246.265625 183.722656 L 243.503906 189.25 L 237.347656 189.25 L 234.582031 183.722656 L 228.136719 183.722656 L 225.371094 189.25 L 183.625 189.25 L 143.679688 149.304688 L 103.527344 189.25 L 82.84375 189.25 L 104.40625 167.6875 L 104.40625 146.792969 L 118.851562 146.792969 L 118.851562 153.242188 C 127.101562 144.992188 135.390625 136.703125 143.640625 128.453125 Z M 187.519531 172.5 L 188.902344 173.882812 L 282.777344 173.882812 L 282.777344 172.5 Z M 187.519531 172.5 " fill-opacity="1" fill-rule="nonzero"/></g><g clip-path="url(#3cc952dd0f)"><path fill="#383535" d="M 134.722656 171.328125 L 142.300781 171.328125 L 142.300781 179.117188 L 134.722656 179.117188 Z M 144.8125 171.328125 L 152.390625 171.328125 L 152.390625 179.117188 L 144.8125 179.117188 Z M 152.390625 181.417969 L 152.390625 189.207031 L 144.8125 189.207031 L 144.8125 181.417969 Z M 142.300781 189.25 L 134.722656 189.25 L 134.722656 181.460938 L 142.300781 181.460938 Z M 142.300781 189.25 " fill-opacity="1" fill-rule="nonzero"/></g><g fill="#383535" fill-opacity="1"><g transform="translate(43.150501, 222.65729)"><g><path d="M 11.359375 0.40625 C 10.234375 0.40625 9.15625 0.25 8.125 -0.0625 C 7.101562 -0.382812 6.164062 -0.847656 5.3125 -1.453125 C 4.457031 -2.054688 3.710938 -2.78125 3.078125 -3.625 C 2.453125 -4.46875 1.96875 -5.414062 1.625 -6.46875 C 1.289062 -7.519531 1.125 -8.65625 1.125 -9.875 C 1.125 -11.09375 1.296875 -12.226562 1.640625 -13.28125 C 1.984375 -14.332031 2.46875 -15.28125 3.09375 -16.125 C 3.71875 -16.96875 4.457031 -17.6875 5.3125 -18.28125 C 6.164062 -18.882812 7.101562 -19.347656 8.125 -19.671875 C 9.144531 -19.992188 10.21875 -20.15625 11.34375 -20.15625 C 12.769531 -20.15625 14.09375 -19.90625 15.3125 -19.40625 C 16.539062 -18.90625 17.613281 -18.210938 18.53125 -17.328125 C 18.664062 -17.210938 18.722656 -17.09375 18.703125 -16.96875 C 18.691406 -16.84375 18.628906 -16.71875 18.515625 -16.59375 L 17.375 -15.6875 C 17.132812 -15.457031 16.890625 -15.460938 16.640625 -15.703125 C 15.929688 -16.328125 15.128906 -16.820312 14.234375 -17.1875 C 13.335938 -17.550781 12.375 -17.734375 11.34375 -17.734375 C 10.28125 -17.734375 9.285156 -17.539062 8.359375 -17.15625 C 7.429688 -16.78125 6.613281 -16.242188 5.90625 -15.546875 C 5.195312 -14.859375 4.640625 -14.035156 4.234375 -13.078125 C 3.835938 -12.117188 3.640625 -11.0625 3.640625 -9.90625 C 3.640625 -8.738281 3.835938 -7.671875 4.234375 -6.703125 C 4.640625 -5.742188 5.195312 -4.910156 5.90625 -4.203125 C 6.625 -3.503906 7.445312 -2.960938 8.375 -2.578125 C 9.3125 -2.203125 10.316406 -2.015625 11.390625 -2.015625 C 12.398438 -2.015625 13.351562 -2.195312 14.25 -2.5625 C 15.15625 -2.925781 15.953125 -3.421875 16.640625 -4.046875 C 16.878906 -4.273438 17.125 -4.28125 17.375 -4.0625 L 18.515625 -3.171875 C 18.796875 -2.921875 18.820312 -2.679688 18.59375 -2.453125 C 17.675781 -1.566406 16.597656 -0.867188 15.359375 -0.359375 C 14.128906 0.148438 12.796875 0.40625 11.359375 0.40625 Z M 11.359375 0.40625 "/></g></g></g><g fill="#383535" fill-opacity="1"><g transform="translate(65.923601, 222.65729)"><g><path d="M 9.578125 -19.75 L 17.734375 -0.609375 C 17.816406 -0.421875 17.820312 -0.269531 17.75 -0.15625 C 17.675781 -0.0507812 17.539062 0 17.34375 0 L 15.703125 0 C 15.566406 0 15.445312 -0.03125 15.34375 -0.09375 C 15.238281 -0.15625 15.160156 -0.257812 15.109375 -0.40625 L 13.671875 -3.921875 L 4.515625 -3.921875 L 3.078125 -0.40625 C 2.960938 -0.132812 2.753906 0 2.453125 0 L 0.828125 0 C 0.640625 0 0.507812 -0.0507812 0.4375 -0.15625 C 0.363281 -0.269531 0.363281 -0.421875 0.4375 -0.609375 L 8.59375 -19.75 C 8.71875 -20.039062 8.878906 -20.1875 9.078125 -20.1875 C 9.285156 -20.1875 9.453125 -20.039062 9.578125 -19.75 Z M 9.09375 -15.109375 L 5.40625 -6.125 L 12.765625 -6.125 Z M 9.09375 -15.109375 "/></g></g></g><g fill="#383535" fill-opacity="1"><g transform="translate(87.33442, 222.65729)"><g><path d="M 12 -6.90625 L 15.1875 -0.625 C 15.289062 -0.4375 15.300781 -0.285156 15.21875 -0.171875 C 15.144531 -0.0546875 15.007812 0 14.8125 0 L 13.09375 0 C 12.8125 0 12.609375 -0.132812 12.484375 -0.40625 L 9.53125 -6.265625 C 9.257812 -6.222656 8.984375 -6.195312 8.703125 -6.1875 C 8.429688 -6.175781 8.148438 -6.171875 7.859375 -6.171875 L 4.453125 -6.171875 L 4.453125 -0.53125 C 4.453125 -0.175781 4.273438 0 3.921875 0 L 2.484375 0 C 2.128906 0 1.953125 -0.175781 1.953125 -0.53125 L 1.953125 -19.21875 C 1.953125 -19.570312 2.128906 -19.75 2.484375 -19.75 L 7.6875 -19.75 C 10.363281 -19.75 12.320312 -19.171875 13.5625 -18.015625 C 14.800781 -16.859375 15.421875 -15.179688 15.421875 -12.984375 C 15.421875 -9.929688 14.28125 -7.90625 12 -6.90625 Z M 4.453125 -8.515625 L 7.53125 -8.515625 C 7.800781 -8.515625 8.117188 -8.523438 8.484375 -8.546875 C 8.847656 -8.566406 9.234375 -8.613281 9.640625 -8.6875 C 10.054688 -8.769531 10.457031 -8.90625 10.84375 -9.09375 C 11.238281 -9.28125 11.59375 -9.535156 11.90625 -9.859375 C 12.226562 -10.179688 12.484375 -10.59375 12.671875 -11.09375 C 12.867188 -11.601562 12.96875 -12.226562 12.96875 -12.96875 C 12.96875 -13.695312 12.875 -14.3125 12.6875 -14.8125 C 12.5 -15.320312 12.242188 -15.738281 11.921875 -16.0625 C 11.609375 -16.394531 11.253906 -16.648438 10.859375 -16.828125 C 10.472656 -17.003906 10.078125 -17.132812 9.671875 -17.21875 C 9.265625 -17.300781 8.875 -17.347656 8.5 -17.359375 C 8.125 -17.378906 7.800781 -17.390625 7.53125 -17.390625 L 4.453125 -17.390625 Z M 4.453125 -8.515625 "/></g></g></g><g fill="#383535" fill-opacity="1"><g transform="translate(107.344401, 222.65729)"><g><path d="M 3.953125 0 L 2.484375 0 C 2.128906 0 1.953125 -0.175781 1.953125 -0.53125 L 1.953125 -19.21875 C 1.953125 -19.570312 2.128906 -19.75 2.484375 -19.75 L 3.953125 -19.75 C 4.296875 -19.75 4.46875 -19.570312 4.46875 -19.21875 L 4.46875 -0.53125 C 4.46875 -0.175781 4.296875 0 3.953125 0 Z M 3.953125 0 "/></g></g></g><g fill="#383535" fill-opacity="1"><g transform="translate(116.995902, 222.65729)"><g><path d="M 8.28125 0 L 2.484375 0 C 2.128906 0 1.953125 -0.175781 1.953125 -0.53125 L 1.953125 -19.21875 C 1.953125 -19.570312 2.128906 -19.75 2.484375 -19.75 L 7.8125 -19.75 C 8.96875 -19.75 9.945312 -19.617188 10.75 -19.359375 C 11.5625 -19.097656 12.210938 -18.734375 12.703125 -18.265625 C 13.203125 -17.796875 13.5625 -17.242188 13.78125 -16.609375 C 14.007812 -15.972656 14.125 -15.285156 14.125 -14.546875 C 14.125 -13.671875 13.953125 -12.835938 13.609375 -12.046875 C 13.265625 -11.253906 12.679688 -10.601562 11.859375 -10.09375 C 12.535156 -9.832031 13.078125 -9.460938 13.484375 -8.984375 C 13.898438 -8.503906 14.207031 -7.972656 14.40625 -7.390625 C 14.601562 -6.804688 14.703125 -6.234375 14.703125 -5.671875 C 14.703125 -4.953125 14.601562 -4.253906 14.40625 -3.578125 C 14.207031 -2.898438 13.863281 -2.289062 13.375 -1.75 C 12.894531 -1.207031 12.238281 -0.78125 11.40625 -0.46875 C 10.570312 -0.15625 9.53125 0 8.28125 0 Z M 4.46875 -17.390625 L 4.46875 -11.140625 L 8.4375 -11.140625 C 9.289062 -11.140625 9.953125 -11.269531 10.421875 -11.53125 C 10.898438 -11.800781 11.234375 -12.175781 11.421875 -12.65625 C 11.617188 -13.144531 11.71875 -13.71875 11.71875 -14.375 C 11.71875 -14.820312 11.65625 -15.226562 11.53125 -15.59375 C 11.414062 -15.957031 11.210938 -16.273438 10.921875 -16.546875 C 10.640625 -16.816406 10.238281 -17.023438 9.71875 -17.171875 C 9.207031 -17.316406 8.546875 -17.390625 7.734375 -17.390625 Z M 4.46875 -8.984375 L 4.46875 -2.359375 L 8.1875 -2.359375 C 9.050781 -2.359375 9.75 -2.453125 10.28125 -2.640625 C 10.8125 -2.835938 11.210938 -3.097656 11.484375 -3.421875 C 11.765625 -3.742188 11.953125 -4.109375 12.046875 -4.515625 C 12.140625 -4.929688 12.1875 -5.351562 12.1875 -5.78125 C 12.1875 -6.394531 12.066406 -6.941406 11.828125 -7.421875 C 11.597656 -7.910156 11.207031 -8.289062 10.65625 -8.5625 C 10.113281 -8.84375 9.378906 -8.984375 8.453125 -8.984375 Z M 4.46875 -8.984375 "/></g></g></g><g fill="#383535" fill-opacity="1"><g transform="translate(136.260484, 222.65729)"><g><path d="M 8.28125 0 L 2.484375 0 C 2.128906 0 1.953125 -0.175781 1.953125 -0.53125 L 1.953125 -19.21875 C 1.953125 -19.570312 2.128906 -19.75 2.484375 -19.75 L 7.8125 -19.75 C 8.96875 -19.75 9.945312 -19.617188 10.75 -19.359375 C 11.5625 -19.097656 12.210938 -18.734375 12.703125 -18.265625 C 13.203125 -17.796875 13.5625 -17.242188 13.78125 -16.609375 C 14.007812 -15.972656 14.125 -15.285156 14.125 -14.546875 C 14.125 -13.671875 13.953125 -12.835938 13.609375 -12.046875 C 13.265625 -11.253906 12.679688 -10.601562 11.859375 -10.09375 C 12.535156 -9.832031 13.078125 -9.460938 13.484375 -8.984375 C 13.898438 -8.503906 14.207031 -7.972656 14.40625 -7.390625 C 14.601562 -6.804688 14.703125 -6.234375 14.703125 -5.671875 C 14.703125 -4.953125 14.601562 -4.253906 14.40625 -3.578125 C 14.207031 -2.898438 13.863281 -2.289062 13.375 -1.75 C 12.894531 -1.207031 12.238281 -0.78125 11.40625 -0.46875 C 10.570312 -0.15625 9.53125 0 8.28125 0 Z M 4.46875 -17.390625 L 4.46875 -11.140625 L 8.4375 -11.140625 C 9.289062 -11.140625 9.953125 -11.269531 10.421875 -11.53125 C 10.898438 -11.800781 11.234375 -12.175781 11.421875 -12.65625 C 11.617188 -13.144531 11.71875 -13.71875 11.71875 -14.375 C 11.71875 -14.820312 11.65625 -15.226562 11.53125 -15.59375 C 11.414062 -15.957031 11.210938 -16.273438 10.921875 -16.546875 C 10.640625 -16.816406 10.238281 -17.023438 9.71875 -17.171875 C 9.207031 -17.316406 8.546875 -17.390625 7.734375 -17.390625 Z M 4.46875 -8.984375 L 4.46875 -2.359375 L 8.1875 -2.359375 C 9.050781 -2.359375 9.75 -2.453125 10.28125 -2.640625 C 10.8125 -2.835938 11.210938 -3.097656 11.484375 -3.421875 C 11.765625 -3.742188 11.953125 -4.109375 12.046875 -4.515625 C 12.140625 -4.929688 12.1875 -5.351562 12.1875 -5.78125 C 12.1875 -6.394531 12.066406 -6.941406 11.828125 -7.421875 C 11.597656 -7.910156 11.207031 -8.289062 10.65625 -8.5625 C 10.113281 -8.84375 9.378906 -8.984375 8.453125 -8.984375 Z M 4.46875 -8.984375 "/></g></g></g><g fill="#383535" fill-opacity="1"><g transform="translate(155.525066, 222.65729)"><g><path d="M 12.03125 0 L 2.484375 0 C 2.128906 0 1.953125 -0.175781 1.953125 -0.53125 L 1.953125 -19.21875 C 1.953125 -19.570312 2.128906 -19.75 2.484375 -19.75 L 12.03125 -19.75 C 12.382812 -19.75 12.5625 -19.570312 12.5625 -19.21875 L 12.5625 -17.921875 C 12.5625 -17.566406 12.382812 -17.390625 12.03125 -17.390625 L 4.46875 -17.390625 L 4.46875 -8.609375 L 11 -8.609375 C 11.351562 -8.609375 11.53125 -8.4375 11.53125 -8.09375 L 11.53125 -6.84375 C 11.53125 -6.488281 11.351562 -6.3125 11 -6.3125 L 4.46875 -6.3125 L 4.46875 -2.359375 L 12.03125 -2.359375 C 12.382812 -2.359375 12.5625 -2.179688 12.5625 -1.828125 L 12.5625 -0.53125 C 12.5625 -0.175781 12.382812 0 12.03125 0 Z M 12.03125 0 "/></g></g></g><g fill="#383535" fill-opacity="1"><g transform="translate(172.347822, 222.65729)"><g><path d="M 9.578125 -19.75 L 17.734375 -0.609375 C 17.816406 -0.421875 17.820312 -0.269531 17.75 -0.15625 C 17.675781 -0.0507812 17.539062 0 17.34375 0 L 15.703125 0 C 15.566406 0 15.445312 -0.03125 15.34375 -0.09375 C 15.238281 -0.15625 15.160156 -0.257812 15.109375 -0.40625 L 13.671875 -3.921875 L 4.515625 -3.921875 L 3.078125 -0.40625 C 2.960938 -0.132812 2.753906 0 2.453125 0 L 0.828125 0 C 0.640625 0 0.507812 -0.0507812 0.4375 -0.15625 C 0.363281 -0.269531 0.363281 -0.421875 0.4375 -0.609375 L 8.59375 -19.75 C 8.71875 -20.039062 8.878906 -20.1875 9.078125 -20.1875 C 9.285156 -20.1875 9.453125 -20.039062 9.578125 -19.75 Z M 9.09375 -15.109375 L 5.40625 -6.125 L 12.765625 -6.125 Z M 9.09375 -15.109375 "/></g></g></g><g fill="#383535" fill-opacity="1"><g transform="translate(193.758641, 222.65729)"><g><path d="M 3.953125 0 L 2.5 0 C 2.15625 0 1.984375 -0.175781 1.984375 -0.53125 L 1.984375 -19.296875 C 1.984375 -19.617188 2.046875 -19.859375 2.171875 -20.015625 C 2.296875 -20.171875 2.457031 -20.226562 2.65625 -20.1875 C 2.863281 -20.15625 3.066406 -20.015625 3.265625 -19.765625 L 14.671875 -5.4375 L 14.671875 -19.21875 C 14.671875 -19.570312 14.84375 -19.75 15.1875 -19.75 L 16.640625 -19.75 C 16.984375 -19.75 17.15625 -19.570312 17.15625 -19.21875 L 17.15625 -0.453125 C 17.15625 -0.128906 17.085938 0.101562 16.953125 0.25 C 16.828125 0.40625 16.660156 0.460938 16.453125 0.421875 C 16.253906 0.390625 16.050781 0.25 15.84375 0 L 4.453125 -14.40625 L 4.453125 -0.53125 C 4.453125 -0.175781 4.285156 0 3.953125 0 Z M 3.953125 0 "/></g></g></g><g fill="#383535" fill-opacity="1"><g transform="translate(216.159042, 222.65729)"><g/></g></g><g fill="#383535" fill-opacity="1"><g transform="translate(226.941493, 222.65729)"><g><path d="M 3.953125 0 L 2.484375 0 C 2.128906 0 1.953125 -0.175781 1.953125 -0.53125 L 1.953125 -19.21875 C 1.953125 -19.570312 2.128906 -19.75 2.484375 -19.75 L 3.953125 -19.75 C 4.296875 -19.75 4.46875 -19.570312 4.46875 -19.21875 L 4.46875 -8.640625 L 14.109375 -8.640625 L 14.109375 -19.21875 C 14.109375 -19.570312 14.285156 -19.75 14.640625 -19.75 L 16.109375 -19.75 C 16.460938 -19.75 16.640625 -19.570312 16.640625 -19.21875 L 16.640625 -0.53125 C 16.640625 -0.175781 16.460938 0 16.109375 0 L 14.640625 0 C 14.285156 0 14.109375 -0.175781 14.109375 -0.53125 L 14.109375 -6.28125 L 4.46875 -6.28125 L 4.46875 -0.53125 C 4.46875 -0.175781 4.296875 0 3.953125 0 Z M 3.953125 0 "/></g></g></g><g fill="#383535" fill-opacity="1"><g transform="translate(248.763555, 222.65729)"><g><path d="M 11.390625 0.40625 C 10.253906 0.40625 9.164062 0.25 8.125 -0.0625 C 7.09375 -0.382812 6.148438 -0.847656 5.296875 -1.453125 C 4.453125 -2.054688 3.710938 -2.78125 3.078125 -3.625 C 2.453125 -4.476562 1.96875 -5.429688 1.625 -6.484375 C 1.289062 -7.535156 1.125 -8.664062 1.125 -9.875 C 1.125 -11.082031 1.289062 -12.207031 1.625 -13.25 C 1.96875 -14.300781 2.453125 -15.25 3.078125 -16.09375 C 3.710938 -16.945312 4.453125 -17.675781 5.296875 -18.28125 C 6.148438 -18.882812 7.09375 -19.347656 8.125 -19.671875 C 9.164062 -19.992188 10.253906 -20.15625 11.390625 -20.15625 C 12.523438 -20.15625 13.609375 -19.992188 14.640625 -19.671875 C 15.679688 -19.347656 16.628906 -18.882812 17.484375 -18.28125 C 18.335938 -17.675781 19.078125 -16.945312 19.703125 -16.09375 C 20.328125 -15.25 20.8125 -14.300781 21.15625 -13.25 C 21.5 -12.207031 21.671875 -11.082031 21.671875 -9.875 C 21.671875 -8.664062 21.5 -7.535156 21.15625 -6.484375 C 20.8125 -5.429688 20.328125 -4.476562 19.703125 -3.625 C 19.078125 -2.78125 18.335938 -2.054688 17.484375 -1.453125 C 16.628906 -0.847656 15.6875 -0.382812 14.65625 -0.0625 C 13.625 0.25 12.535156 0.40625 11.390625 0.40625 Z M 11.390625 -2.015625 C 12.460938 -2.015625 13.460938 -2.203125 14.390625 -2.578125 C 15.328125 -2.960938 16.148438 -3.503906 16.859375 -4.203125 C 17.578125 -4.898438 18.132812 -5.726562 18.53125 -6.6875 C 18.9375 -7.644531 19.140625 -8.707031 19.140625 -9.875 C 19.140625 -11.039062 18.9375 -12.101562 18.53125 -13.0625 C 18.132812 -14.019531 17.578125 -14.847656 16.859375 -15.546875 C 16.148438 -16.242188 15.328125 -16.78125 14.390625 -17.15625 C 13.460938 -17.539062 12.460938 -17.734375 11.390625 -17.734375 C 10.316406 -17.734375 9.3125 -17.539062 8.375 -17.15625 C 7.4375 -16.78125 6.609375 -16.242188 5.890625 -15.546875 C 5.179688 -14.847656 4.628906 -14.019531 4.234375 -13.0625 C 3.835938 -12.101562 3.640625 -11.039062 3.640625 -9.875 C 3.640625 -8.71875 3.835938 -7.660156 4.234375 -6.703125 C 4.640625 -5.742188 5.195312 -4.910156 5.90625 -4.203125 C 6.625 -3.503906 7.445312 -2.960938 8.375 -2.578125 C 9.3125 -2.203125 10.316406 -2.015625 11.390625 -2.015625 Z M 11.390625 -2.015625 "/></g></g></g><g fill="#383535" fill-opacity="1"><g transform="translate(274.801014, 222.65729)"><g><path d="M 3.953125 0 L 2.5 0 C 2.15625 0 1.984375 -0.175781 1.984375 -0.53125 L 1.984375 -19.34375 C 1.984375 -19.675781 2.046875 -19.914062 2.171875 -20.0625 C 2.304688 -20.21875 2.472656 -20.269531 2.671875 -20.21875 C 2.867188 -20.175781 3.066406 -20.019531 3.265625 -19.75 L 11.21875 -8.8125 L 19.1875 -19.75 C 19.382812 -20.019531 19.582031 -20.175781 19.78125 -20.21875 C 19.976562 -20.269531 20.144531 -20.21875 20.28125 -20.0625 C 20.414062 -19.914062 20.484375 -19.675781 20.484375 -19.34375 L 20.484375 -0.53125 C 20.484375 -0.175781 20.304688 0 19.953125 0 L 18.515625 0 C 18.160156 0 17.984375 -0.175781 17.984375 -0.53125 L 17.984375 -13.96875 L 11.59375 -5.265625 C 11.476562 -5.117188 11.351562 -5.046875 11.21875 -5.046875 C 11.082031 -5.046875 10.957031 -5.117188 10.84375 -5.265625 L 4.46875 -13.96875 L 4.46875 -0.53125 C 4.46875 -0.175781 4.296875 0 3.953125 0 Z M 3.953125 0 "/></g></g></g><g fill="#383535" fill-opacity="1"><g transform="translate(300.491442, 222.65729)"><g><path d="M 12.03125 0 L 2.484375 0 C 2.128906 0 1.953125 -0.175781 1.953125 -0.53125 L 1.953125 -19.21875 C 1.953125 -19.570312 2.128906 -19.75 2.484375 -19.75 L 12.03125 -19.75 C 12.382812 -19.75 12.5625 -19.570312 12.5625 -19.21875 L 12.5625 -17.921875 C 12.5625 -17.566406 12.382812 -17.390625 12.03125 -17.390625 L 4.46875 -17.390625 L 4.46875 -8.609375 L 11 -8.609375 C 11.351562 -8.609375 11.53125 -8.4375 11.53125 -8.09375 L 11.53125 -6.84375 C 11.53125 -6.488281 11.351562 -6.3125 11 -6.3125 L 4.46875 -6.3125 L 4.46875 -2.359375 L 12.03125 -2.359375 C 12.382812 -2.359375 12.5625 -2.179688 12.5625 -1.828125 L 12.5625 -0.53125 C 12.5625 -0.175781 12.382812 0 12.03125 0 Z M 12.03125 0 "/></g></g></g><g fill="#383535" fill-opacity="1"><g transform="translate(317.31421, 222.65729)"><g><path d="M 7.484375 0.40625 C 6.867188 0.40625 6.242188 0.363281 5.609375 0.28125 C 4.984375 0.195312 4.320312 0.046875 3.625 -0.171875 C 2.925781 -0.390625 2.164062 -0.6875 1.34375 -1.0625 C 1.03125 -1.226562 0.957031 -1.46875 1.125 -1.78125 L 1.671875 -3.046875 C 1.835938 -3.359375 2.082031 -3.425781 2.40625 -3.25 C 3.4375 -2.707031 4.347656 -2.335938 5.140625 -2.140625 C 5.941406 -1.953125 6.664062 -1.859375 7.3125 -1.859375 C 8.4375 -1.859375 9.328125 -2.097656 9.984375 -2.578125 C 10.648438 -3.054688 10.984375 -3.734375 10.984375 -4.609375 C 10.984375 -5.117188 10.859375 -5.570312 10.609375 -5.96875 C 10.359375 -6.375 10.019531 -6.75 9.59375 -7.09375 C 9.164062 -7.4375 8.671875 -7.769531 8.109375 -8.09375 C 7.546875 -8.425781 6.945312 -8.765625 6.3125 -9.109375 C 5.695312 -9.460938 5.09375 -9.828125 4.5 -10.203125 C 3.914062 -10.578125 3.390625 -11 2.921875 -11.46875 C 2.453125 -11.9375 2.078125 -12.472656 1.796875 -13.078125 C 1.523438 -13.691406 1.390625 -14.394531 1.390625 -15.1875 C 1.390625 -16.0625 1.539062 -16.804688 1.84375 -17.421875 C 2.15625 -18.046875 2.582031 -18.5625 3.125 -18.96875 C 3.664062 -19.375 4.28125 -19.671875 4.96875 -19.859375 C 5.65625 -20.054688 6.382812 -20.15625 7.15625 -20.15625 C 7.945312 -20.15625 8.78125 -20.050781 9.65625 -19.84375 C 10.539062 -19.644531 11.421875 -19.359375 12.296875 -18.984375 C 12.628906 -18.828125 12.71875 -18.59375 12.5625 -18.28125 L 12.046875 -17.03125 C 11.972656 -16.894531 11.875 -16.800781 11.75 -16.75 C 11.632812 -16.695312 11.5 -16.710938 11.34375 -16.796875 C 10.632812 -17.117188 9.921875 -17.367188 9.203125 -17.546875 C 8.484375 -17.734375 7.796875 -17.828125 7.140625 -17.828125 C 6.566406 -17.828125 6.035156 -17.742188 5.546875 -17.578125 C 5.054688 -17.410156 4.660156 -17.144531 4.359375 -16.78125 C 4.066406 -16.425781 3.921875 -15.957031 3.921875 -15.375 C 3.921875 -14.863281 4.03125 -14.398438 4.25 -13.984375 C 4.476562 -13.578125 4.785156 -13.203125 5.171875 -12.859375 C 5.554688 -12.523438 5.992188 -12.210938 6.484375 -11.921875 C 6.972656 -11.628906 7.492188 -11.332031 8.046875 -11.03125 C 8.554688 -10.75 9.070312 -10.453125 9.59375 -10.140625 C 10.125 -9.835938 10.617188 -9.507812 11.078125 -9.15625 C 11.546875 -8.8125 11.960938 -8.425781 12.328125 -8 C 12.691406 -7.570312 12.976562 -7.09375 13.1875 -6.5625 C 13.40625 -6.03125 13.515625 -5.425781 13.515625 -4.75 C 13.515625 -3.894531 13.351562 -3.144531 13.03125 -2.5 C 12.71875 -1.851562 12.28125 -1.3125 11.71875 -0.875 C 11.164062 -0.445312 10.523438 -0.128906 9.796875 0.078125 C 9.078125 0.296875 8.304688 0.40625 7.484375 0.40625 Z M 7.484375 0.40625 "/></g></g></g><g fill="#b38f4b" fill-opacity="0.4"><g transform="translate(87.984111, 245.387182)"><g><path d="M 5.421875 0 L 3.953125 -2.0625 C 3.785156 -2.039062 3.613281 -2.03125 3.4375 -2.03125 L 1.71875 -2.03125 L 1.71875 0 L 1.046875 0 L 1.046875 -6.40625 L 3.4375 -6.40625 C 4.257812 -6.40625 4.898438 -6.207031 5.359375 -5.8125 C 5.828125 -5.425781 6.0625 -4.894531 6.0625 -4.21875 C 6.0625 -3.71875 5.929688 -3.289062 5.671875 -2.9375 C 5.421875 -2.59375 5.0625 -2.347656 4.59375 -2.203125 L 6.15625 0 Z M 3.421875 -2.609375 C 4.054688 -2.609375 4.539062 -2.75 4.875 -3.03125 C 5.21875 -3.3125 5.390625 -3.707031 5.390625 -4.21875 C 5.390625 -4.726562 5.21875 -5.125 4.875 -5.40625 C 4.539062 -5.6875 4.054688 -5.828125 3.421875 -5.828125 L 1.71875 -5.828125 L 1.71875 -2.609375 Z M 3.421875 -2.609375 "/></g></g></g><g fill="#b38f4b" fill-opacity="0.4"><g transform="translate(100.189154, 245.387182)"><g><path d="M 5.578125 -0.59375 L 5.578125 0 L 1.046875 0 L 1.046875 -6.40625 L 5.4375 -6.40625 L 5.4375 -5.828125 L 1.71875 -5.828125 L 1.71875 -3.546875 L 5.03125 -3.546875 L 5.03125 -2.96875 L 1.71875 -2.96875 L 1.71875 -0.59375 Z M 5.578125 -0.59375 "/></g></g></g><g fill="#b38f4b" fill-opacity="0.4"><g transform="translate(111.899973, 245.387182)"><g><path d="M 5.0625 -1.71875 L 1.5 -1.71875 L 0.71875 0 L 0.015625 0 L 2.953125 -6.40625 L 3.609375 -6.40625 L 6.546875 0 L 5.828125 0 Z M 4.8125 -2.265625 L 3.28125 -5.703125 L 1.734375 -2.265625 Z M 4.8125 -2.265625 "/></g></g></g><g fill="#b38f4b" fill-opacity="0.4"><g transform="translate(124.050107, 245.387182)"><g><path d="M 1.046875 -6.40625 L 1.71875 -6.40625 L 1.71875 -0.59375 L 5.3125 -0.59375 L 5.3125 0 L 1.046875 0 Z M 1.046875 -6.40625 "/></g></g></g><g fill="#b38f4b" fill-opacity="0.4"><g transform="translate(135.028732, 245.387182)"><g/></g></g><g fill="#b38f4b" fill-opacity="0.4"><g transform="translate(143.014522, 245.387182)"><g><path d="M 5.578125 -0.59375 L 5.578125 0 L 1.046875 0 L 1.046875 -6.40625 L 5.4375 -6.40625 L 5.4375 -5.828125 L 1.71875 -5.828125 L 1.71875 -3.546875 L 5.03125 -3.546875 L 5.03125 -2.96875 L 1.71875 -2.96875 L 1.71875 -0.59375 Z M 5.578125 -0.59375 "/></g></g></g><g fill="#b38f4b" fill-opacity="0.4"><g transform="translate(154.725341, 245.387182)"><g><path d="M 2.8125 0.0625 C 2.332031 0.0625 1.875 -0.015625 1.4375 -0.171875 C 1 -0.328125 0.664062 -0.53125 0.4375 -0.78125 L 0.703125 -1.296875 C 0.929688 -1.066406 1.238281 -0.878906 1.625 -0.734375 C 2.007812 -0.585938 2.40625 -0.515625 2.8125 -0.515625 C 3.382812 -0.515625 3.8125 -0.617188 4.09375 -0.828125 C 4.382812 -1.046875 4.53125 -1.320312 4.53125 -1.65625 C 4.53125 -1.914062 4.453125 -2.117188 4.296875 -2.265625 C 4.140625 -2.421875 3.945312 -2.539062 3.71875 -2.625 C 3.5 -2.707031 3.1875 -2.796875 2.78125 -2.890625 C 2.300781 -3.015625 1.914062 -3.132812 1.625 -3.25 C 1.34375 -3.363281 1.097656 -3.535156 0.890625 -3.765625 C 0.691406 -3.992188 0.59375 -4.304688 0.59375 -4.703125 C 0.59375 -5.023438 0.675781 -5.316406 0.84375 -5.578125 C 1.007812 -5.847656 1.269531 -6.0625 1.625 -6.21875 C 1.976562 -6.382812 2.421875 -6.46875 2.953125 -6.46875 C 3.316406 -6.46875 3.671875 -6.414062 4.015625 -6.3125 C 4.367188 -6.207031 4.675781 -6.066406 4.9375 -5.890625 L 4.703125 -5.359375 C 4.429688 -5.535156 4.144531 -5.664062 3.84375 -5.75 C 3.539062 -5.84375 3.242188 -5.890625 2.953125 -5.890625 C 2.390625 -5.890625 1.960938 -5.78125 1.671875 -5.5625 C 1.390625 -5.34375 1.25 -5.0625 1.25 -4.71875 C 1.25 -4.46875 1.328125 -4.265625 1.484375 -4.109375 C 1.640625 -3.953125 1.832031 -3.832031 2.0625 -3.75 C 2.300781 -3.664062 2.617188 -3.578125 3.015625 -3.484375 C 3.492188 -3.367188 3.875 -3.253906 4.15625 -3.140625 C 4.445312 -3.023438 4.691406 -2.851562 4.890625 -2.625 C 5.097656 -2.394531 5.203125 -2.082031 5.203125 -1.6875 C 5.203125 -1.363281 5.113281 -1.066406 4.9375 -0.796875 C 4.757812 -0.535156 4.488281 -0.328125 4.125 -0.171875 C 3.769531 -0.015625 3.332031 0.0625 2.8125 0.0625 Z M 2.8125 0.0625 "/></g></g></g><g fill="#b38f4b" fill-opacity="0.4"><g transform="translate(165.941923, 245.387182)"><g><path d="M 2.28125 -5.828125 L 0.03125 -5.828125 L 0.03125 -6.40625 L 5.21875 -6.40625 L 5.21875 -5.828125 L 2.96875 -5.828125 L 2.96875 0 L 2.28125 0 Z M 2.28125 -5.828125 "/></g></g></g><g fill="#b38f4b" fill-opacity="0.4"><g transform="translate(176.783265, 245.387182)"><g><path d="M 5.0625 -1.71875 L 1.5 -1.71875 L 0.71875 0 L 0.015625 0 L 2.953125 -6.40625 L 3.609375 -6.40625 L 6.546875 0 L 5.828125 0 Z M 4.8125 -2.265625 L 3.28125 -5.703125 L 1.734375 -2.265625 Z M 4.8125 -2.265625 "/></g></g></g><g fill="#b38f4b" fill-opacity="0.4"><g transform="translate(188.9334, 245.387182)"><g><path d="M 2.28125 -5.828125 L 0.03125 -5.828125 L 0.03125 -6.40625 L 5.21875 -6.40625 L 5.21875 -5.828125 L 2.96875 -5.828125 L 2.96875 0 L 2.28125 0 Z M 2.28125 -5.828125 "/></g></g></g><g fill="#b38f4b" fill-opacity="0.4"><g transform="translate(199.774742, 245.387182)"><g><path d="M 5.578125 -0.59375 L 5.578125 0 L 1.046875 0 L 1.046875 -6.40625 L 5.4375 -6.40625 L 5.4375 -5.828125 L 1.71875 -5.828125 L 1.71875 -3.546875 L 5.03125 -3.546875 L 5.03125 -2.96875 L 1.71875 -2.96875 L 1.71875 -0.59375 Z M 5.578125 -0.59375 "/></g></g></g><g fill="#b38f4b" fill-opacity="0.4"><g transform="translate(211.48556, 245.387182)"><g/></g></g><g fill="#b38f4b" fill-opacity="0.4"><g transform="translate(219.47135, 245.387182)"><g><path d="M 5.0625 -1.71875 L 1.5 -1.71875 L 0.71875 0 L 0.015625 0 L 2.953125 -6.40625 L 3.609375 -6.40625 L 6.546875 0 L 5.828125 0 Z M 4.8125 -2.265625 L 3.28125 -5.703125 L 1.734375 -2.265625 Z M 4.8125 -2.265625 "/></g></g></g><g fill="#b38f4b" fill-opacity="0.4"><g transform="translate(231.621484, 245.387182)"><g><path d="M 5.5625 -3.203125 L 6.203125 -3.203125 L 6.203125 -0.765625 C 5.910156 -0.492188 5.554688 -0.285156 5.140625 -0.140625 C 4.734375 -0.00390625 4.304688 0.0625 3.859375 0.0625 C 3.210938 0.0625 2.632812 -0.078125 2.125 -0.359375 C 1.613281 -0.640625 1.207031 -1.03125 0.90625 -1.53125 C 0.613281 -2.03125 0.46875 -2.585938 0.46875 -3.203125 C 0.46875 -3.816406 0.613281 -4.375 0.90625 -4.875 C 1.207031 -5.375 1.613281 -5.765625 2.125 -6.046875 C 2.632812 -6.328125 3.210938 -6.46875 3.859375 -6.46875 C 4.347656 -6.46875 4.796875 -6.390625 5.203125 -6.234375 C 5.617188 -6.078125 5.96875 -5.847656 6.25 -5.546875 L 5.828125 -5.109375 C 5.316406 -5.609375 4.671875 -5.859375 3.890625 -5.859375 C 3.367188 -5.859375 2.898438 -5.742188 2.484375 -5.515625 C 2.066406 -5.285156 1.738281 -4.96875 1.5 -4.5625 C 1.257812 -4.15625 1.140625 -3.703125 1.140625 -3.203125 C 1.140625 -2.703125 1.257812 -2.25 1.5 -1.84375 C 1.738281 -1.445312 2.066406 -1.128906 2.484375 -0.890625 C 2.898438 -0.660156 3.363281 -0.546875 3.875 -0.546875 C 4.539062 -0.546875 5.101562 -0.710938 5.5625 -1.046875 Z M 5.5625 -3.203125 "/></g></g></g><g fill="#b38f4b" fill-opacity="0.4"><g transform="translate(244.284153, 245.387182)"><g><path d="M 5.578125 -0.59375 L 5.578125 0 L 1.046875 0 L 1.046875 -6.40625 L 5.4375 -6.40625 L 5.4375 -5.828125 L 1.71875 -5.828125 L 1.71875 -3.546875 L 5.03125 -3.546875 L 5.03125 -2.96875 L 1.71875 -2.96875 L 1.71875 -0.59375 Z M 5.578125 -0.59375 "/></g></g></g><g fill="#b38f4b" fill-opacity="0.4"><g transform="translate(255.994972, 245.387182)"><g><path d="M 6.40625 -6.40625 L 6.40625 0 L 5.84375 0 L 1.71875 -5.203125 L 1.71875 0 L 1.046875 0 L 1.046875 -6.40625 L 1.609375 -6.40625 L 5.734375 -1.203125 L 5.734375 -6.40625 Z M 6.40625 -6.40625 "/></g></g></g><g fill="#b38f4b" fill-opacity="0.4"><g transform="translate(269.023738, 245.387182)"><g><path d="M 3.828125 0.0625 C 3.191406 0.0625 2.617188 -0.078125 2.109375 -0.359375 C 1.597656 -0.640625 1.195312 -1.03125 0.90625 -1.53125 C 0.613281 -2.03125 0.46875 -2.585938 0.46875 -3.203125 C 0.46875 -3.816406 0.613281 -4.375 0.90625 -4.875 C 1.195312 -5.375 1.597656 -5.765625 2.109375 -6.046875 C 2.628906 -6.328125 3.207031 -6.46875 3.84375 -6.46875 C 4.3125 -6.46875 4.75 -6.382812 5.15625 -6.21875 C 5.5625 -6.0625 5.90625 -5.832031 6.1875 -5.53125 L 5.75 -5.09375 C 5.25 -5.601562 4.617188 -5.859375 3.859375 -5.859375 C 3.347656 -5.859375 2.882812 -5.742188 2.46875 -5.515625 C 2.050781 -5.285156 1.722656 -4.96875 1.484375 -4.5625 C 1.253906 -4.15625 1.140625 -3.703125 1.140625 -3.203125 C 1.140625 -2.703125 1.253906 -2.25 1.484375 -1.84375 C 1.722656 -1.445312 2.050781 -1.128906 2.46875 -0.890625 C 2.882812 -0.660156 3.347656 -0.546875 3.859375 -0.546875 C 4.628906 -0.546875 5.257812 -0.800781 5.75 -1.3125 L 6.1875 -0.890625 C 5.90625 -0.585938 5.5625 -0.351562 5.15625 -0.1875 C 4.75 -0.0195312 4.304688 0.0625 3.828125 0.0625 Z M 3.828125 0.0625 "/></g></g></g><g fill="#b38f4b" fill-opacity="0.4"><g transform="translate(281.192183, 245.387182)"><g><path d="M 3.234375 -2.21875 L 3.234375 0 L 2.578125 0 L 2.578125 -2.21875 L 0.015625 -6.40625 L 0.734375 -6.40625 L 2.9375 -2.8125 L 5.125 -6.40625 L 5.8125 -6.40625 Z M 3.234375 -2.21875 "/></g></g></g><g fill="#ad8a44" fill-opacity="1"><g transform="translate(87.984111, 245.387182)"><g><path d="M 5.421875 0 L 3.953125 -2.0625 C 3.785156 -2.039062 3.613281 -2.03125 3.4375 -2.03125 L 1.71875 -2.03125 L 1.71875 0 L 1.046875 0 L 1.046875 -6.40625 L 3.4375 -6.40625 C 4.257812 -6.40625 4.898438 -6.207031 5.359375 -5.8125 C 5.828125 -5.425781 6.0625 -4.894531 6.0625 -4.21875 C 6.0625 -3.71875 5.929688 -3.289062 5.671875 -2.9375 C 5.421875 -2.59375 5.0625 -2.347656 4.59375 -2.203125 L 6.15625 0 Z M 3.421875 -2.609375 C 4.054688 -2.609375 4.539062 -2.75 4.875 -3.03125 C 5.21875 -3.3125 5.390625 -3.707031 5.390625 -4.21875 C 5.390625 -4.726562 5.21875 -5.125 4.875 -5.40625 C 4.539062 -5.6875 4.054688 -5.828125 3.421875 -5.828125 L 1.71875 -5.828125 L 1.71875 -2.609375 Z M 3.421875 -2.609375 "/></g></g></g><g fill="#ad8a44" fill-opacity="1"><g transform="translate(100.189154, 245.387182)"><g><path d="M 5.578125 -0.59375 L 5.578125 0 L 1.046875 0 L 1.046875 -6.40625 L 5.4375 -6.40625 L 5.4375 -5.828125 L 1.71875 -5.828125 L 1.71875 -3.546875 L 5.03125 -3.546875 L 5.03125 -2.96875 L 1.71875 -2.96875 L 1.71875 -0.59375 Z M 5.578125 -0.59375 "/></g></g></g><g fill="#ad8a44" fill-opacity="1"><g transform="translate(111.899973, 245.387182)"><g><path d="M 5.0625 -1.71875 L 1.5 -1.71875 L 0.71875 0 L 0.015625 0 L 2.953125 -6.40625 L 3.609375 -6.40625 L 6.546875 0 L 5.828125 0 Z M 4.8125 -2.265625 L 3.28125 -5.703125 L 1.734375 -2.265625 Z M 4.8125 -2.265625 "/></g></g></g><g fill="#ad8a44" fill-opacity="1"><g transform="translate(124.050107, 245.387182)"><g><path d="M 1.046875 -6.40625 L 1.71875 -6.40625 L 1.71875 -0.59375 L 5.3125 -0.59375 L 5.3125 0 L 1.046875 0 Z M 1.046875 -6.40625 "/></g></g></g><g fill="#ad8a44" fill-opacity="1"><g transform="translate(135.028732, 245.387182)"><g/></g></g><g fill="#ad8a44" fill-opacity="1"><g transform="translate(143.014522, 245.387182)"><g><path d="M 5.578125 -0.59375 L 5.578125 0 L 1.046875 0 L 1.046875 -6.40625 L 5.4375 -6.40625 L 5.4375 -5.828125 L 1.71875 -5.828125 L 1.71875 -3.546875 L 5.03125 -3.546875 L 5.03125 -2.96875 L 1.71875 -2.96875 L 1.71875 -0.59375 Z M 5.578125 -0.59375 "/></g></g></g><g fill="#ad8a44" fill-opacity="1"><g transform="translate(154.725341, 245.387182)"><g><path d="M 2.8125 0.0625 C 2.332031 0.0625 1.875 -0.015625 1.4375 -0.171875 C 1 -0.328125 0.664062 -0.53125 0.4375 -0.78125 L 0.703125 -1.296875 C 0.929688 -1.066406 1.238281 -0.878906 1.625 -0.734375 C 2.007812 -0.585938 2.40625 -0.515625 2.8125 -0.515625 C 3.382812 -0.515625 3.8125 -0.617188 4.09375 -0.828125 C 4.382812 -1.046875 4.53125 -1.320312 4.53125 -1.65625 C 4.53125 -1.914062 4.453125 -2.117188 4.296875 -2.265625 C 4.140625 -2.421875 3.945312 -2.539062 3.71875 -2.625 C 3.5 -2.707031 3.1875 -2.796875 2.78125 -2.890625 C 2.300781 -3.015625 1.914062 -3.132812 1.625 -3.25 C 1.34375 -3.363281 1.097656 -3.535156 0.890625 -3.765625 C 0.691406 -3.992188 0.59375 -4.304688 0.59375 -4.703125 C 0.59375 -5.023438 0.675781 -5.316406 0.84375 -5.578125 C 1.007812 -5.847656 1.269531 -6.0625 1.625 -6.21875 C 1.976562 -6.382812 2.421875 -6.46875 2.953125 -6.46875 C 3.316406 -6.46875 3.671875 -6.414062 4.015625 -6.3125 C 4.367188 -6.207031 4.675781 -6.066406 4.9375 -5.890625 L 4.703125 -5.359375 C 4.429688 -5.535156 4.144531 -5.664062 3.84375 -5.75 C 3.539062 -5.84375 3.242188 -5.890625 2.953125 -5.890625 C 2.390625 -5.890625 1.960938 -5.78125 1.671875 -5.5625 C 1.390625 -5.34375 1.25 -5.0625 1.25 -4.71875 C 1.25 -4.46875 1.328125 -4.265625 1.484375 -4.109375 C 1.640625 -3.953125 1.832031 -3.832031 2.0625 -3.75 C 2.300781 -3.664062 2.617188 -3.578125 3.015625 -3.484375 C 3.492188 -3.367188 3.875 -3.253906 4.15625 -3.140625 C 4.445312 -3.023438 4.691406 -2.851562 4.890625 -2.625 C 5.097656 -2.394531 5.203125 -2.082031 5.203125 -1.6875 C 5.203125 -1.363281 5.113281 -1.066406 4.9375 -0.796875 C 4.757812 -0.535156 4.488281 -0.328125 4.125 -0.171875 C 3.769531 -0.015625 3.332031 0.0625 2.8125 0.0625 Z M 2.8125 0.0625 "/></g></g></g><g fill="#ad8a44" fill-opacity="1"><g transform="translate(165.941923, 245.387182)"><g><path d="M 2.28125 -5.828125 L 0.03125 -5.828125 L 0.03125 -6.40625 L 5.21875 -6.40625 L 5.21875 -5.828125 L 2.96875 -5.828125 L 2.96875 0 L 2.28125 0 Z M 2.28125 -5.828125 "/></g></g></g><g fill="#ad8a44" fill-opacity="1"><g transform="translate(176.783265, 245.387182)"><g><path d="M 5.0625 -1.71875 L 1.5 -1.71875 L 0.71875 0 L 0.015625 0 L 2.953125 -6.40625 L 3.609375 -6.40625 L 6.546875 0 L 5.828125 0 Z M 4.8125 -2.265625 L 3.28125 -5.703125 L 1.734375 -2.265625 Z M 4.8125 -2.265625 "/></g></g></g><g fill="#ad8a44" fill-opacity="1"><g transform="translate(188.9334, 245.387182)"><g><path d="M 2.28125 -5.828125 L 0.03125 -5.828125 L 0.03125 -6.40625 L 5.21875 -6.40625 L 5.21875 -5.828125 L 2.96875 -5.828125 L 2.96875 0 L 2.28125 0 Z M 2.28125 -5.828125 "/></g></g></g><g fill="#ad8a44" fill-opacity="1"><g transform="translate(199.774742, 245.387182)"><g><path d="M 5.578125 -0.59375 L 5.578125 0 L 1.046875 0 L 1.046875 -6.40625 L 5.4375 -6.40625 L 5.4375 -5.828125 L 1.71875 -5.828125 L 1.71875 -3.546875 L 5.03125 -3.546875 L 5.03125 -2.96875 L 1.71875 -2.96875 L 1.71875 -0.59375 Z M 5.578125 -0.59375 "/></g></g></g><g fill="#ad8a44" fill-opacity="1"><g transform="translate(211.48556, 245.387182)"><g/></g></g><g fill="#ad8a44" fill-opacity="1"><g transform="translate(219.47135, 245.387182)"><g><path d="M 5.0625 -1.71875 L 1.5 -1.71875 L 0.71875 0 L 0.015625 0 L 2.953125 -6.40625 L 3.609375 -6.40625 L 6.546875 0 L 5.828125 0 Z M 4.8125 -2.265625 L 3.28125 -5.703125 L 1.734375 -2.265625 Z M 4.8125 -2.265625 "/></g></g></g><g fill="#ad8a44" fill-opacity="1"><g transform="translate(231.621484, 245.387182)"><g><path d="M 5.5625 -3.203125 L 6.203125 -3.203125 L 6.203125 -0.765625 C 5.910156 -0.492188 5.554688 -0.285156 5.140625 -0.140625 C 4.734375 -0.00390625 4.304688 0.0625 3.859375 0.0625 C 3.210938 0.0625 2.632812 -0.078125 2.125 -0.359375 C 1.613281 -0.640625 1.207031 -1.03125 0.90625 -1.53125 C 0.613281 -2.03125 0.46875 -2.585938 0.46875 -3.203125 C 0.46875 -3.816406 0.613281 -4.375 0.90625 -4.875 C 1.207031 -5.375 1.613281 -5.765625 2.125 -6.046875 C 2.632812 -6.328125 3.210938 -6.46875 3.859375 -6.46875 C 4.347656 -6.46875 4.796875 -6.390625 5.203125 -6.234375 C 5.617188 -6.078125 5.96875 -5.847656 6.25 -5.546875 L 5.828125 -5.109375 C 5.316406 -5.609375 4.671875 -5.859375 3.890625 -5.859375 C 3.367188 -5.859375 2.898438 -5.742188 2.484375 -5.515625 C 2.066406 -5.285156 1.738281 -4.96875 1.5 -4.5625 C 1.257812 -4.15625 1.140625 -3.703125 1.140625 -3.203125 C 1.140625 -2.703125 1.257812 -2.25 1.5 -1.84375 C 1.738281 -1.445312 2.066406 -1.128906 2.484375 -0.890625 C 2.898438 -0.660156 3.363281 -0.546875 3.875 -0.546875 C 4.539062 -0.546875 5.101562 -0.710938 5.5625 -1.046875 Z M 5.5625 -3.203125 "/></g></g></g><g fill="#ad8a44" fill-opacity="1"><g transform="translate(244.284153, 245.387182)"><g><path d="M 5.578125 -0.59375 L 5.578125 0 L 1.046875 0 L 1.046875 -6.40625 L 5.4375 -6.40625 L 5.4375 -5.828125 L 1.71875 -5.828125 L 1.71875 -3.546875 L 5.03125 -3.546875 L 5.03125 -2.96875 L 1.71875 -2.96875 L 1.71875 -0.59375 Z M 5.578125 -0.59375 "/></g></g></g><g fill="#ad8a44" fill-opacity="1"><g transform="translate(255.994972, 245.387182)"><g><path d="M 6.40625 -6.40625 L 6.40625 0 L 5.84375 0 L 1.71875 -5.203125 L 1.71875 0 L 1.046875 0 L 1.046875 -6.40625 L 1.609375 -6.40625 L 5.734375 -1.203125 L 5.734375 -6.40625 Z M 6.40625 -6.40625 "/></g></g></g><g fill="#ad8a44" fill-opacity="1"><g transform="translate(269.023738, 245.387182)"><g><path d="M 3.828125 0.0625 C 3.191406 0.0625 2.617188 -0.078125 2.109375 -0.359375 C 1.597656 -0.640625 1.195312 -1.03125 0.90625 -1.53125 C 0.613281 -2.03125 0.46875 -2.585938 0.46875 -3.203125 C 0.46875 -3.816406 0.613281 -4.375 0.90625 -4.875 C 1.195312 -5.375 1.597656 -5.765625 2.109375 -6.046875 C 2.628906 -6.328125 3.207031 -6.46875 3.84375 -6.46875 C 4.3125 -6.46875 4.75 -6.382812 5.15625 -6.21875 C 5.5625 -6.0625 5.90625 -5.832031 6.1875 -5.53125 L 5.75 -5.09375 C 5.25 -5.601562 4.617188 -5.859375 3.859375 -5.859375 C 3.347656 -5.859375 2.882812 -5.742188 2.46875 -5.515625 C 2.050781 -5.285156 1.722656 -4.96875 1.484375 -4.5625 C 1.253906 -4.15625 1.140625 -3.703125 1.140625 -3.203125 C 1.140625 -2.703125 1.253906 -2.25 1.484375 -1.84375 C 1.722656 -1.445312 2.050781 -1.128906 2.46875 -0.890625 C 2.882812 -0.660156 3.347656 -0.546875 3.859375 -0.546875 C 4.628906 -0.546875 5.257812 -0.800781 5.75 -1.3125 L 6.1875 -0.890625 C 5.90625 -0.585938 5.5625 -0.351562 5.15625 -0.1875 C 4.75 -0.0195312 4.304688 0.0625 3.828125 0.0625 Z M 3.828125 0.0625 "/></g></g></g><g fill="#ad8a44" fill-opacity="1"><g transform="translate(281.192183, 245.387182)"><g><path d="M 3.234375 -2.21875 L 3.234375 0 L 2.578125 0 L 2.578125 -2.21875 L 0.015625 -6.40625 L 0.734375 -6.40625 L 2.9375 -2.8125 L 5.125 -6.40625 L 5.8125 -6.40625 Z M 3.234375 -2.21875 "/></g></g></g></svg>